<?xml version="1.0" encoding="UTF-8"?>
<svg id="Layer_1" data-name="Layer 1" xmlns="http://www.w3.org/2000/svg" viewBox="0 0 2743.5 1455.67">
  <defs>
    <style>
      .cls-1 {
        fill-rule: evenodd;
      }

      .cls-1, .cls-2 {
        fill: #0b6b98;
      }

      .cls-3 {
        fill: #052839;
      }
    </style>
  </defs>
  <g>
    <path class="cls-2" d="M687.06,1403.05l6.4-13.5c9,8.14,24.41,14.02,39.98,14.02,20.95,0,29.95-8.14,29.95-18.7,0-29.6-73.39-10.9-73.39-55.91,0-18.69,14.54-34.62,46.39-34.62,14.19,0,28.91,3.81,38.95,10.73l-5.71,13.85c-10.56-6.75-22.5-9.87-33.24-9.87-20.6,0-29.43,8.65-29.43,19.21,0,29.6,73.39,11.08,73.39,55.56,0,18.52-14.89,34.45-46.91,34.45-18.52,0-36.7-6.23-46.39-15.23Z"/>
    <path class="cls-2" d="M962.78,1401.84v15.06h-87.93v-121.17h85.51v15.06h-68.2v37.22h60.76v14.71h-60.76v39.12h70.62Z"/>
    <path class="cls-2" d="M1141.05,1416.9l-26.14-37.22c-2.42.17-5.02.35-7.62.35h-29.95v36.87h-17.31v-121.17h47.26c31.51,0,50.55,15.93,50.55,42.24,0,18.69-9.69,32.2-26.66,38.25l28.73,40.68h-18.87ZM1140.53,1337.97c0-17.31-11.6-27.18-33.75-27.18h-29.43v54.53h29.43c22.16,0,33.75-10.04,33.75-27.35Z"/>
    <path class="cls-2" d="M1360.34,1295.73l-53.14,121.17h-17.14l-53.31-121.17h18.7l43.62,99.53,43.97-99.53h17.31Z"/>
    <path class="cls-2" d="M1444.96,1295.73h17.31v121.17h-17.31v-121.17Z"/>
    <path class="cls-2" d="M1656.99,1388.34l11.25,10.91c-10.91,12.11-26.66,18.69-45.01,19.04l-1.9,7.27c10.04,1.04,15.06,6.75,15.06,14.37,0,9.7-8.48,15.75-21.46,15.75-6.06,0-11.08-1.21-15.41-3.81l3.64-8.48c3.63,2.08,7.44,2.94,11.77,2.94,6.58,0,9.69-2.6,9.69-6.92,0-3.98-2.95-6.75-9.87-6.75h-4.67l3.81-14.89c-32.54-3.46-55.91-28.39-55.91-61.45,0-35.83,27.35-61.97,64.22-61.97,18.69,0,34.97,6.4,46.05,18.87l-11.25,10.9c-9.35-9.86-20.77-14.37-34.1-14.37-27.35,0-47.6,19.73-47.6,46.56s20.25,46.57,47.6,46.57c13.33,0,24.75-4.67,34.1-14.54Z"/>
    <path class="cls-2" d="M1749.74,1356.31c0-35.48,27.35-61.97,64.57-61.97s64.22,26.31,64.22,61.97-27.35,61.97-64.22,61.97-64.57-26.48-64.57-61.97ZM1861.22,1356.31c0-26.83-20.08-46.56-46.91-46.56s-47.26,19.73-47.26,46.56,20.08,46.57,47.26,46.57,46.91-19.73,46.91-46.57Z"/>
    <path class="cls-2" d="M1963.14,1403.05l6.4-13.5c9,8.14,24.41,14.02,39.99,14.02,20.94,0,29.94-8.14,29.94-18.7,0-29.6-73.39-10.9-73.39-55.91,0-18.69,14.54-34.62,46.39-34.62,14.2,0,28.91,3.81,38.95,10.73l-5.71,13.85c-10.56-6.75-22.5-9.87-33.24-9.87-20.6,0-29.43,8.65-29.43,19.21,0,29.6,73.39,11.08,73.39,55.56,0,18.52-14.89,34.45-46.91,34.45-18.52,0-36.7-6.23-46.39-15.23Z"/>
  </g>
  <path class="cls-1" d="M1416.87,0l180.37,312.37h-180.34l-45.11-78.11-277.73,481.04h-180.34S1286.6,69.47,1286.6,69.47L1326.7,0h90.16ZM1469.17,402.91h90.16s90.14,0,90.14,0l45.07,78.09,45.1,78.12,90.15,156.19h-90.17s-90.16-.01-90.16-.01l-90.15-156.2h-90.17s-90.14,0-90.14,0l-45.07-78.09-45.1-78.09h90.16s90.17-.01,90.17-.01h0Z"/>
  <g>
    <path class="cls-3" d="M109.97,1171.13c-20.8,0-39.59-4.89-56.36-14.63-16.75-9.74-29.89-24.37-39.38-43.85-9.49-19.52-14.23-43.92-14.23-73.3,0-21.32,2.6-40.36,7.81-57.15,5.19-16.75,13.12-30.97,23.78-42.68,10.65-11.71,23.72-20.72,39.19-27.1,15.45-6.38,33.33-9.55,53.61-9.55,15.07,0,28.84,1.87,41.33,5.65,12.47,3.78,23.26,9.04,32.37,15.8,9.09,6.76,16.23,14.88,21.44,24.37,5.2,9.49,8.33,20.34,9.36,32.56l-46.79,14.03c-.78-11.96-3.97-21.64-9.55-29.04-5.6-7.43-12.8-12.95-21.64-16.6-8.84-3.62-18.33-5.46-28.46-5.46-14.57,0-27.16,3.27-37.83,9.77-10.66,6.47-18.79,16.63-24.37,30.4-5.58,13.77-8.38,31.45-8.38,53.02,0,16.66,1.68,30.81,5.06,42.52,3.38,11.68,8.19,21.29,14.44,28.84,6.24,7.55,13.64,13.01,22.21,16.37,8.58,3.4,18.33,5.08,29.26,5.08,12.2,0,22.8-2.09,31.76-6.25,8.98-4.16,16.18-10.66,21.64-19.48,5.47-8.85,8.58-20.02,9.36-33.54h-52.25v-36.27h101.39v131.02h-36.65l3.51-67.08h-6.63c-4.16,15.87-9.74,29.13-16.77,39.79-7.01,10.66-16.06,18.79-27.1,24.37-11.04,5.58-24.75,8.38-41.13,8.38Z"/>
    <path class="cls-3" d="M286.99,1165.67v-257.35h99.83c13.77,0,26.24,1.05,37.43,3.11,11.17,2.09,21.12,5.27,29.83,9.55s16.12,9.49,22.23,15.61c6.11,6.09,10.73,13.14,13.84,21.04,3.13,7.93,4.68,16.72,4.68,26.34,0,9.11-1.49,17.36-4.47,24.75-3,7.43-7.28,13.9-12.87,19.48-5.6,5.62-12.61,10.09-21.05,13.45-8.46,3.4-18.28,5.74-29.45,7.04v5.46c11.96,1.55,21.77,4.54,29.45,8.95,7.66,4.44,13.9,10.6,18.71,18.53,4.81,7.93,8.9,17.74,12.28,29.45l15.6,54.58h-54.2l-12.47-49.92c-2.33-10.38-5.92-18.66-10.73-24.75-4.81-6.12-10.85-10.54-18.14-13.26-7.28-2.73-15.98-4.09-26.12-4.09h-44.84v92.02h-49.53ZM336.52,1035.82h46.39c19.75,0,34.76-3.65,45.04-10.92,10.27-7.27,15.39-18.6,15.39-33.92s-4.87-25.86-14.61-33.16c-9.76-7.27-24.51-10.92-44.27-10.92h-47.95v88.91Z"/>
    <path class="cls-3" d="M658.19,1170.75c-15.34,0-29.05-1.49-41.14-4.51-12.09-2.98-22.61-7.52-31.57-13.64-8.98-6.09-16.45-13.45-22.42-22.02-6-8.57-10.47-18.31-13.45-29.26-3-10.92-4.49-22.85-4.49-35.86v-157.14h49.52v155.58c0,14.03,2.35,25.73,7.03,35.1,4.66,9.36,11.69,16.31,21.05,20.85,9.35,4.57,21.05,6.82,35.1,6.82s26.05-2.19,35.29-6.63c9.22-4.41,16.18-11.3,20.85-20.66,4.68-9.36,7.03-21.2,7.03-35.48v-155.58h49.12v157.14c0,33.54-9.42,59.47-28.26,77.78-18.85,18.34-46.74,27.51-83.65,27.51Z"/>
    <path class="cls-3" d="M828.98,1165.67v-257.35h49.53v257.35h-49.53ZM861.34,1091.19v-39.76h60.43c21.07,0,36.71-4.03,47-12.09,10.27-8.06,15.41-21.7,15.41-40.97,0-16.88-4.82-29.67-14.44-38.4-9.61-8.69-24.56-13.07-44.84-13.07h-63.56v-38.59h65.11c16.9,0,31.91,1.94,45.04,5.84,13.12,3.9,24.37,9.61,33.73,17.17,9.36,7.55,16.56,17.1,21.64,28.65,5.06,11.58,7.6,24.91,7.6,39.98,0,19.74-4.55,36.4-13.64,49.88-9.11,13.55-22.5,23.8-40.17,30.81-17.67,7.01-39.51,10.54-65.5,10.54h-53.82Z"/>
    <path class="cls-3" d="M1188.89,1170.75c-18.71,0-35.35-3.01-49.92-8.98-14.55-5.97-27.04-14.69-37.43-26.12-10.39-11.46-18.2-25.29-23.39-41.54-5.2-16.25-7.81-35.03-7.81-56.33,0-29.89,5.12-54.87,15.41-74.89,10.27-19.99,24.5-35.03,42.7-45.03,18.2-10,38.73-15.01,61.61-15.01,17.93,0,34.18,2.98,48.74,8.98,14.55,5.97,27.1,14.6,37.63,25.93,10.52,11.3,18.58,25.32,24.16,42.11,5.58,16.75,8.39,35.92,8.39,57.5s-2.81,40.24-8.39,56.74c-5.58,16.5-13.58,30.49-23.97,41.92-10.41,11.46-23.01,20.09-37.83,25.93-14.82,5.87-31.46,8.79-49.92,8.79ZM1190.06,1130.95c14.82,0,27.29-3.55,37.43-10.73,10.14-7.14,17.88-17.45,23.21-30.97,5.32-13.52,7.98-30.05,7.98-49.53s-2.79-37.1-8.38-51.28c-5.6-14.15-13.58-25.01-23.97-32.56-10.41-7.52-22.88-11.3-37.44-11.3s-26.51,3.55-36.65,10.73c-10.14,7.14-17.93,17.67-23.39,31.57-5.47,13.9-8.2,31-8.2,51.28,0,14.57,1.63,27.67,4.89,39.38,3.24,11.71,7.66,21.45,13.25,29.26,5.58,7.77,12.74,13.77,21.45,17.93,8.71,4.16,18.64,6.22,29.83,6.22Z"/>
    <path class="cls-3" d="M1431.02,1165.67l88.9-257.35h71.75l89.29,257.35h-53.82l-68.62-217.97h-5.46l-68.24,217.97h-53.8ZM1478.59,1112.65v-34.72h161.82v34.72h-161.82Z"/>
    <path class="cls-3" d="M1719.17,1165.67v-257.35h99.83c13.77,0,26.24,1.05,37.43,3.11,11.17,2.09,21.12,5.27,29.83,9.55,8.71,4.28,16.12,9.49,22.23,15.61,6.11,6.09,10.73,13.14,13.84,21.04,3.13,7.93,4.68,16.72,4.68,26.34,0,9.11-1.49,17.36-4.47,24.75-3,7.43-7.28,13.9-12.87,19.48-5.6,5.62-12.61,10.09-21.05,13.45-8.46,3.4-18.28,5.74-29.45,7.04v5.46c11.96,1.55,21.77,4.54,29.45,8.95,7.66,4.44,13.9,10.6,18.71,18.53,4.81,7.93,8.9,17.74,12.28,29.45l15.6,54.58h-54.2l-12.47-49.92c-2.33-10.38-5.92-18.66-10.73-24.75-4.81-6.12-10.85-10.54-18.14-13.26-7.28-2.73-15.98-4.09-26.12-4.09h-44.84v92.02h-49.53ZM1768.7,1035.82h46.39c19.75,0,34.76-3.65,45.04-10.92,10.27-7.27,15.39-18.6,15.39-33.92s-4.87-25.86-14.61-33.16c-9.76-7.27-24.51-10.92-44.27-10.92h-47.95v88.91Z"/>
    <path class="cls-3" d="M1980.02,1165.67v-257.35h49.53v257.35h-49.53ZM2004.6,1165.67v-40.93h74.86c15.85,0,28.86-3.46,39-10.34,10.14-6.89,17.8-16.82,23.01-29.83,5.19-12.98,7.79-28.59,7.79-46.77,0-15.61-1.68-28.94-5.06-39.98-3.38-11.04-8.25-20.15-14.63-27.29-6.36-7.14-14.42-12.47-24.16-15.99-9.76-3.52-21.39-5.27-34.91-5.27h-65.89v-40.93h64.34c30.67,0,55.69,5.08,75.06,15.2,19.36,10.15,33.53,24.62,42.49,43.47,8.98,18.85,13.45,41.54,13.45,68.07,0,18.69-2.08,35.29-6.24,49.69-4.16,14.44-10.01,26.78-17.55,37.06-7.54,10.25-16.37,18.66-26.51,25.13-10.14,6.51-21.05,11.27-32.75,14.25-11.71,2.98-23.53,4.47-35.49,4.47h-76.81Z"/>
    <path class="cls-3" d="M2219.06,1165.67l88.9-257.35h71.75l89.29,257.35h-53.82l-68.62-217.97h-5.46l-68.24,217.97h-53.8ZM2266.63,1112.65v-34.72h161.82v34.72h-161.82Z"/>
    <path class="cls-3" d="M2507.21,1165.67v-257.35h64.73l122.82,191.06h3.9l-3.11-191.06h47.95v257.35h-58.48l-128.67-198.87h-3.51l2.73,198.87h-48.36Z"/>
  </g>
</svg>